<svg xmlns="http://www.w3.org/2000/svg" viewBox="0 0 60 60"><defs><style>.cls-1{fill:#202945;}.cls-2{fill:#80bc00;}</style></defs><g id="Header"><path class="cls-1" d="M19,8.09,12.56,0H50.94a4,4,0,1,1,0,8.09ZM32.86,33.44H50.3a4,4,0,1,0,0-8.09H32.63l.44.56a6.56,6.56,0,0,1,0,7.26ZM50.94,51.91H18.24L11.83,60H50.94a4,4,0,1,0,0-8.09"></path><path class="cls-2" d="M33.07,25.91l-.45-.56H13.11V8.09H19L12.56,0H9.06A4,4,0,0,0,6.92.63,4,4,0,0,0,5,4.05V56H5a4,4,0,0,0,4,4h2.77l6.41-8.09H13.11V33.44H32.86l.21-.27a6.56,6.56,0,0,0,0-7.26"></path></g></svg>